<svg xmlns="http://www.w3.org/2000/svg" width="400" height="400"><line x1="0" y1="350" x2="400" y2="350" stroke="black" /><line x1="350" y1="0" x2="350" y2="400" stroke="black" /><text x="220" y="347" font-family="Arial" font-size="3" fill="black">(-1.6, 0.0)</text><text x="211" y="317" font-family="Arial" font-size="3" fill="black">(-1.7, 0.1)</text><text x="202" y="287" font-family="Arial" font-size="3" fill="black">(-1.81, 0.2)</text><text x="194" y="257" font-family="Arial" font-size="3" fill="black">(-1.91, 0.3)</text><text x="185" y="227" font-family="Arial" font-size="3" fill="black">(-2.02, 0.4)</text><text x="176" y="197" font-family="Arial" font-size="3" fill="black">(-2.12, 0.5)</text><text x="168" y="167" font-family="Arial" font-size="3" fill="black">(-2.22, 0.6)</text><text x="159" y="137" font-family="Arial" font-size="3" fill="black">(-2.33, 0.7)</text><text x="150" y="107" font-family="Arial" font-size="3" fill="black">(-2.43, 0.8)</text><text x="142" y="77" font-family="Arial" font-size="3" fill="black">(-2.54, 0.9)</text><text x="133" y="47" font-family="Arial" font-size="3" fill="black">(-2.64, 1.0)</text><text x="118" y="47" font-family="Arial" font-size="3" fill="black">(-2.82, 1.0)</text><text x="111" y="77" font-family="Arial" font-size="3" fill="black">(-2.9, 0.9)</text><text x="105" y="107" font-family="Arial" font-size="3" fill="black">(-2.98, 0.8)</text><text x="98" y="137" font-family="Arial" font-size="3" fill="black">(-3.06, 0.7)</text><text x="92" y="167" font-family="Arial" font-size="3" fill="black">(-3.14, 0.6)</text><text x="85" y="197" font-family="Arial" font-size="3" fill="black">(-3.22, 0.5)</text><text x="79" y="227" font-family="Arial" font-size="3" fill="black">(-3.3, 0.4)</text><text x="72" y="257" font-family="Arial" font-size="3" fill="black">(-3.37, 0.3)</text><text x="66" y="287" font-family="Arial" font-size="3" fill="black">(-3.45, 0.2)</text><text x="59" y="317" font-family="Arial" font-size="3" fill="black">(-3.53, 0.1)</text><text x="53" y="347" font-family="Arial" font-size="3" fill="black">(-3.61, 0.0)</text><text x="353" y="347" font-family="Arial" font-size="3" fill="black">(0.0, 0.0)</text><text x="353" y="347" font-family="Arial" font-size="3" fill="black">(0.0, 0.0)</text><text x="353" y="47" font-family="Arial" font-size="3" fill="black">(0.0, 1.0)</text><polygon points="217,350 208,320 199,290 191,260 182,230 173,200 165,170 156,140 147,110 139,80 130,50 115,50 108,80 102,110 95,140 89,170 82,200 76,230 69,260 63,290 56,320 50,350 " fill="none" stroke="black" /></svg>